<svg xmlns="http://www.w3.org/2000/svg" viewBox="0 0 220 48" fill="none">
  <!-- Icon -->
  <rect width="48" height="48" rx="11" fill="#f7931a"/>
  <path d="M12 10h12c4.2 0 6.8 2.1 6.8 5.7 0 2.3-1.2 3.9-3.1 4.7 2.4.8 3.9 2.6 3.9 5.1 0 4-3 6.5-7.8 6.5H12V10zm5 8.4h6.6c1.7 0 2.7-.9 2.7-2.3 0-1.4-1-2.2-2.7-2.2H17v4.5zm0 9.2h7.2c1.8 0 3-.9 3-2.4 0-1.6-1.2-2.5-3-2.5H17v4.9z" fill="#000" opacity="0.9"/>
  <!-- Wordmark -->
  <text x="60" y="19" font-family="'Space Grotesk', 'Inter', system-ui, sans-serif" font-size="13" font-weight="800" letter-spacing="-0.3" fill="#f7931a">BTC</text>
  <text x="60" y="36" font-family="'Space Grotesk', 'Inter', system-ui, sans-serif" font-size="13" font-weight="700" letter-spacing="0.5" fill="currentColor" opacity="0.85">NATIVE</text>
  <!-- Separator line -->
  <line x1="56" y1="12" x2="56" y2="38" stroke="currentColor" stroke-width="1" opacity="0.12"/>
</svg>
