<svg xmlns="http://www.w3.org/2000/svg" viewBox="0 0 64 64" fill="none">
  <!-- Background square -->
  <rect width="64" height="64" rx="14" fill="#f7931a"/>
  <!-- B letterform — precise, geometric -->
  <path d="M18 14h16c5.5 0 9 2.8 9 7.5 0 3-1.6 5.2-4.2 6.3 3.2 1 5.2 3.4 5.2 6.8C44 40.8 40 44 33.5 44H18V14zm6.5 11.2h8.8c2.2 0 3.5-1.1 3.5-3s-1.3-3-3.5-3h-8.8v6zm0 12.2h9.6c2.4 0 4-1.2 4-3.2 0-2.1-1.6-3.2-4-3.2h-9.6v6.4z" fill="#000" opacity="0.92"/>
  <!-- Resolution dots — three small dots suggesting DNS/name lookup -->
  <circle cx="22" cy="52" r="2" fill="#000" opacity="0.35"/>
  <circle cx="32" cy="52" r="2" fill="#000" opacity="0.35"/>
  <circle cx="42" cy="52" r="2" fill="#000" opacity="0.35"/>
</svg>
